<?xml version="1.0" encoding="utf-8"?>
<!-- Generator: Adobe Illustrator 23.0.1, SVG Export Plug-In . SVG Version: 6.00 Build 0)  -->
<svg version="1.1" id="Layer_1" xmlns="http://www.w3.org/2000/svg" xmlns:xlink="http://www.w3.org/1999/xlink" x="0px" y="0px"
	 viewBox="0 0 800 100" style="enable-background:new 0 0 800 100;" xml:space="preserve">
<style type="text/css">
	.st0{fill:url(#SVGID_1_);}
</style>
<g>
	<linearGradient id="SVGID_1_" gradientUnits="userSpaceOnUse" x1="3.9526" y1="50.4619" x2="796.0001" y2="50.4619">
		<stop  offset="0" style="stop-color:#737373"/>
		<stop  offset="8.379889e-02" style="stop-color:#FFFFFF"/>
		<stop  offset="0.1031" style="stop-color:#FCFCFC"/>
		<stop  offset="0.116" style="stop-color:#F3F3F3"/>
		<stop  offset="0.1271" style="stop-color:#E4E4E4"/>
		<stop  offset="0.1372" style="stop-color:#CFCFCF"/>
		<stop  offset="0.1465" style="stop-color:#B4B4B3"/>
		<stop  offset="0.1552" style="stop-color:#939392"/>
		<stop  offset="0.1567" style="stop-color:#8C8C8B"/>
		<stop  offset="0.1617" style="stop-color:#979796"/>
		<stop  offset="0.1709" style="stop-color:#A3A3A3"/>
		<stop  offset="0.1828" style="stop-color:#ABABAB"/>
		<stop  offset="0.2063" style="stop-color:#ADADAD"/>
		<stop  offset="0.2307" style="stop-color:#B0B0B0"/>
		<stop  offset="0.2438" style="stop-color:#B8B8B8"/>
		<stop  offset="0.2542" style="stop-color:#C5C5C5"/>
		<stop  offset="0.2632" style="stop-color:#D9D9D9"/>
		<stop  offset="0.2713" style="stop-color:#F1F1F1"/>
		<stop  offset="0.2748" style="stop-color:#FFFFFF"/>
		<stop  offset="0.3043" style="stop-color:#FCFCFC"/>
		<stop  offset="0.3286" style="stop-color:#F2F2F2"/>
		<stop  offset="0.351" style="stop-color:#E0E0E0"/>
		<stop  offset="0.3724" style="stop-color:#C8C8C8"/>
		<stop  offset="0.3929" style="stop-color:#A9A9A9"/>
		<stop  offset="0.4126" style="stop-color:#838383"/>
		<stop  offset="0.4189" style="stop-color:#757575"/>
		<stop  offset="0.4271" style="stop-color:#8B8B8B"/>
		<stop  offset="0.4403" style="stop-color:#A7A7A7"/>
		<stop  offset="0.4544" style="stop-color:#BDBDBD"/>
		<stop  offset="0.4699" style="stop-color:#CDCDCD"/>
		<stop  offset="0.4877" style="stop-color:#D6D6D6"/>
		<stop  offset="0.5128" style="stop-color:#D9D9D9"/>
		<stop  offset="0.5264" style="stop-color:#D4D4D4"/>
		<stop  offset="0.5408" style="stop-color:#C8C8C8"/>
		<stop  offset="0.5556" style="stop-color:#B3B3B3"/>
		<stop  offset="0.5706" style="stop-color:#959595"/>
		<stop  offset="0.5856" style="stop-color:#6F6F6F"/>
		<stop  offset="0.6005" style="stop-color:#424242"/>
		<stop  offset="0.6099" style="stop-color:#6D6D6D"/>
		<stop  offset="0.62" style="stop-color:#949494"/>
		<stop  offset="0.6309" style="stop-color:#B5B5B5"/>
		<stop  offset="0.6425" style="stop-color:#D0D0D0"/>
		<stop  offset="0.6551" style="stop-color:#E5E5E5"/>
		<stop  offset="0.6692" style="stop-color:#F4F4F4"/>
		<stop  offset="0.6859" style="stop-color:#FCFCFC"/>
		<stop  offset="0.7123" style="stop-color:#FFFFFF"/>
		<stop  offset="0.7267" style="stop-color:#FAFAFA"/>
		<stop  offset="0.7439" style="stop-color:#EBEBEB"/>
		<stop  offset="0.7625" style="stop-color:#D3D3D3"/>
		<stop  offset="0.7821" style="stop-color:#B2B2B2"/>
		<stop  offset="0.8023" style="stop-color:#878787"/>
		<stop  offset="0.8128" style="stop-color:#6E6E6E"/>
		<stop  offset="0.8201" style="stop-color:#808080"/>
		<stop  offset="0.8381" style="stop-color:#A6A6A6"/>
		<stop  offset="0.8569" style="stop-color:#C6C6C6"/>
		<stop  offset="0.8761" style="stop-color:#DFDFDF"/>
		<stop  offset="0.8962" style="stop-color:#F1F1F1"/>
		<stop  offset="0.9176" style="stop-color:#FCFCFC"/>
		<stop  offset="0.9425" style="stop-color:#FFFFFF"/>
		<stop  offset="1" style="stop-color:#3B3B3B"/>
	</linearGradient>
	<path class="st0" d="M743.6,69.2c0,3.9,1.4,6.9,4.3,8.9c2.2,1.5,4.6,2.3,7.4,2.3c2.5,0,5-0.8,7.6-2.5c2.9-1.9,4.4-4.3,4.4-7.1
		c0-2.7-1.2-5.6-3.5-8.6c-1.5-1.9-4.4-4.7-8.6-8.4c-4.1-3.6-6.9-6.4-8.4-8.4c-2.2-2.9-3.4-5.9-3.4-9c0-3.5,1.4-6.6,4.3-9.1
		c3.1-2.7,7.1-4.1,11.9-4.1c4.2,0,7.5,0.4,9.6,1.2c1.1,0.4,1.7,0.8,2,1.2l-1.9,10.5c0-2.1-0.7-4.1-2.2-6.2c-1.8-2.5-4.3-3.8-7.3-3.8
		c-3.3,0-5.9,0.7-7.7,2c-1.7,1.3-2.5,3.2-2.5,5.6c0,4,3.5,8.8,10.4,14.5c4.3,3.5,7.1,6,8.5,7.7c3,3.5,4.5,7,4.5,10.6
		c0,5.7-2.6,10.2-7.7,13.6c-4.1,2.7-8.4,4.1-12.9,4.1c-2.9,0-5.4-0.7-7.5-2.2c-1.1-0.7-1.8-1.5-2.3-2.2
		C742.4,77.1,742.7,73.5,743.6,69.2 M696.1,24.4c3.2,0.9,5.3,2.3,6.2,4.1c0.1,30.4,0.1,47,0.1,49.8c0,1.8-0.9,3.3-2.6,4.6
		c-0.9,0.6-1.7,1.1-2.6,1.4h32.5l1.2-10.5c-0.7,1.3-1.6,2.7-2.8,4c-2.5,2.7-5.1,4-8,4c-2.8,0-5.5-0.9-7.9-2.6
		c-1.2-0.9-2.1-1.7-2.8-2.6V54.1h9.7c3.1,0,5.2,1.1,6.6,3.2c0.7,1.1,1,2.2,1,3.2l1.5-11.9c-1.6,1.3-3.6,2-6.1,2h-12.8V27.8H721
		c2.5,0,4.3,1.1,5.4,3.3c0.6,1.1,0.9,2.2,1,3.3l2.3-11.1l-2.3,1.1H696.1z M685.2,23.3c-0.8,0.3-1.6,0.7-2.5,1.3
		c-1.7,1.2-2.6,2.6-2.7,4.3v55.4l0-0.1v0.1l-44.4-46v40.4c0.1,1.6,1,3.1,2.7,4.3c0.8,0.6,1.7,1.1,2.5,1.3h-17.5
		c0.8-0.3,1.6-0.7,2.5-1.3c1.7-1.2,2.6-2.6,2.7-4.3V23.3l44.4,46.6V29c-0.1-1.6-1-3.1-2.7-4.3c-0.8-0.6-1.7-1.1-2.5-1.3H685.2z
		 M584.2,23.4c7,0,13.6,2.9,19.6,8.6c6.6,6.3,9.9,14,9.9,23.1c0,8.9-3.4,16.1-10.2,21.9c-5.9,4.9-12.3,7.4-19.3,7.4
		c-7.5,0-14.3-2.2-20.3-6.5c-7.5-5.4-11.2-13.1-11.2-23c0-13.9,5.3-23.3,15.8-28.2C573.7,24.1,578.9,23.1,584.2,23.4 M581.4,26.7
		c-0.7,0.1-1.3,0.2-2,0.3v53.8c0.7,0.1,1.4,0.3,2,0.4V26.7z M584.4,81.4c0.8,0,1.6-0.1,2.4-0.2V27.1c-0.8-0.2-1.6-0.3-2.4-0.4V81.4z
		 M560.3,53.9c0,8.2,2,14.7,6.1,19.5c2.9,3.4,6.6,5.7,11.2,7.1V27.5c-4.6,1.3-8.3,3.6-11.2,7C562.4,39.2,560.3,45.6,560.3,53.9
		 M588.6,80.8c4.6-1,8.3-3.1,11.3-6.3c4.1-4.5,6.2-11,6.2-19.5c0-8.5-2.1-15.2-6.2-20.1c-2.9-3.5-6.7-5.9-11.3-7.4V80.8z
		 M526.1,64.8c3.4,5.1,6.5,8.9,9.1,11.4c4.6,4.5,8.9,6.4,12.8,5.6c-0.2,0.4-0.7,0.8-1.6,1.3c-1.7,0.9-4.3,1.3-7.7,1.3
		c-3.4,0-7.6-2.9-12.5-8.8c-2.4-2.9-4.5-5.9-6.3-8.8c-0.8-1.4-2.1-2.8-3.9-4.2c-3.7-2.8-8.1-4.2-13.3-4.2v20.4
		c0.1,1.6,1,3.1,2.7,4.3c0.8,0.6,1.7,1,2.5,1.3h-17.4c0.8-0.3,1.6-0.7,2.5-1.3c1.7-1.2,2.6-2.6,2.7-4.3V29.3c-0.1-1.6-1-3-2.7-4.3
		c-0.8-0.6-1.7-1.1-2.5-1.3h12.2c4.3-0.7,8.5-0.6,12.8,0.3c8.6,1.7,12.8,6.6,12.8,14.4c0.1,1.4-0.1,3.2-0.9,5.5
		c-1.4,4.4-4.2,8.5-8.4,12.2C521.1,58,523.5,60.9,526.1,64.8 M512.9,54.1c1.4-0.1,2.8-0.6,4.2-1.6c2.8-2,4.1-5.5,4.1-10.3
		c0-5.3-1.4-9.4-4.3-12.4c-2.3-2.4-4.9-3.7-7.8-3.7c-2.9,0-4.5,0.1-4.9,0.2c-0.9,0.4-1.3,1.6-1.3,3.8c0,3.2-0.1,11.1-0.2,23.9H512.9
		z M473.8,78.7c0.1,1.6,1,3.1,2.7,4.3c0.8,0.6,1.7,1.1,2.5,1.3h-17.5c0.8-0.3,1.6-0.7,2.5-1.3c1.7-1.2,2.6-2.6,2.7-4.3V53h-33.6
		v25.7c0.1,1.6,1,3.1,2.7,4.3c0.9,0.6,1.7,1.1,2.5,1.3h-17.5c0.8-0.3,1.6-0.7,2.5-1.3c1.7-1.2,2.6-2.6,2.7-4.3V29
		c-0.1-1.6-1-3.1-2.7-4.3c-0.8-0.6-1.7-1.1-2.5-1.3h17.5c-0.8,0.3-1.6,0.7-2.5,1.3c-1.7,1.2-2.6,2.6-2.7,4.3v19.8h33.6V29
		c-0.1-1.6-1-3.1-2.7-4.3c-0.9-0.6-1.7-1.1-2.5-1.3h17.5c-0.8,0.3-1.6,0.7-2.5,1.3c-1.7,1.2-2.6,2.6-2.7,4.3V78.7z M796,3l-3.6,17.3
		c-0.1-1.7-0.6-3.4-1.5-5.1c-1.8-3.5-4.6-5.2-8.4-5.2H402v1.1c0,18-0.1,34.3-0.1,49.1v28.9c0.2,2.6,1.6,4.8,4.2,6.7
		c1.3,1,2.6,1.7,3.8,2.1h-27.2c1.3-0.4,2.6-1.1,3.9-2.1c2.6-1.9,4-4.1,4.2-6.7V60.2c0-14.8-0.1-31.2-0.1-49.1l0-1.1h-17.9
		c-3.8,0-6.6,1.7-8.4,5.2c-0.9,1.7-1.4,3.4-1.5,5.1L359.3,3l3.6,1.7h429.5L796,3z M363.3,55.1c1.6,0,3-0.5,4.1-1.4l-1,8
		c0-0.7-0.3-1.4-0.7-2.2c-0.9-1.4-2.3-2.1-4.4-2.1h-6.5v15.1l0,0.7v0.7c0.1,1.1,0.7,2.1,1.8,2.9c0.6,0.4,1.1,0.7,1.6,0.9h-11.6
		c0.5-0.2,1.1-0.5,1.6-0.9c1.1-0.8,1.7-1.8,1.8-2.9V61.4h0c0-6.3,0-13.4,0-21.1c-0.6-1.2-2-2.1-4.1-2.8h20.9l1.5-0.7l-1.5,7.4
		c-0.1-0.7-0.3-1.5-0.7-2.2c-0.8-1.5-2-2.2-3.6-2.2h-7.7v15.2H363.3z M327.7,36.9c4.7,0,9,1.9,13.1,5.7c4.4,4.2,6.6,9.4,6.6,15.4
		c0,5.9-2.3,10.8-6.8,14.6c-3.9,3.3-8.2,4.9-12.9,4.9c-5,0-9.5-1.4-13.5-4.3c-5-3.6-7.5-8.7-7.5-15.4c0-9.3,3.5-15.5,10.5-18.8
		C320.7,37.4,324.2,36.7,327.7,36.9 M325.8,39.1c-0.5,0.1-0.9,0.1-1.3,0.2v35.9c0.5,0.1,0.9,0.2,1.3,0.2V39.1z M327.8,75.6
		c0.5,0,1-0.1,1.6-0.1V39.4c-0.5-0.1-1.1-0.2-1.6-0.3V75.6z M311.8,57.2c0,5.5,1.4,9.8,4.1,13c1.9,2.3,4.4,3.8,7.4,4.7V39.7
		c-3,0.9-5.5,2.4-7.4,4.6C313.1,47.5,311.8,51.8,311.8,57.2 M330.6,75.2c3.1-0.6,5.6-2,7.5-4.2c2.8-3,4.1-7.4,4.1-13
		c0-5.6-1.4-10.1-4.1-13.4c-1.9-2.3-4.4-4-7.5-4.9V75.2z M251.7,24.4c3.2,0.9,5.3,2.3,6.2,4.1c0.1,30.4,0.1,47,0.1,49.8
		c0,1.8-0.9,3.3-2.6,4.6c-0.9,0.6-1.7,1.1-2.6,1.4h32.5l1.2-10.5c-0.7,1.3-1.6,2.7-2.8,4c-2.5,2.7-5.1,4-8,4c-2.8,0-5.5-0.9-7.9-2.6
		c-1.2-0.9-2.1-1.7-2.8-2.6V54.1h9.7c3.1,0,5.2,1.1,6.6,3.2c0.7,1.1,1,2.2,1,3.2l1.5-11.9c-1.6,1.3-3.6,2-6.1,2h-12.8V27.8h11.6
		c2.5,0,4.3,1.1,5.4,3.3c0.6,1.1,0.9,2.2,1,3.3l2.3-11.1l-2.3,1.1H251.7z M203.1,83.2L203.1,83.2L203.1,83.2l-0.2-0.2l-20.1-37.8
		l-4.2,31v1.9c0.1,1.6,1,3.1,2.7,4.3c0.8,0.6,1.7,1.1,2.5,1.3h-17.3c0.8-0.3,1.6-0.7,2.4-1.3c1.7-1.2,2.6-2.6,2.7-4.3l7-54.7
		L203.1,73l25.3-48.9l9.1,54.7c0.1,1.6,1,3,2.7,4.3c0.8,0.6,1.6,1,2.4,1.3h-17.3c0.8-0.3,1.6-0.7,2.4-1.3c1.7-1.2,2.6-2.6,2.7-4.3
		v-2l-7-30.3L203.1,83.2L203.1,83.2z M137.4,84.4c0.9-1.3,2.5-2.3,4.7-2.9l-7.8-20.2h-16.8L111,80.5c0,1.2,0.8,2.2,2.4,3
		c0.8,0.4,1.5,0.7,2.3,0.9H97.8c2.6-0.3,4.6-1.4,6.2-3.1c0.8-0.9,1.3-1.7,1.5-2.5l20.9-55.4c14.2,34.5,22,53.1,23.4,55.9
		c0.9,1.7,2.3,3.1,4.2,4.1c1,0.5,1.9,0.9,2.7,1H137.4z M133.3,57.5L126,36.9l-7.6,20.6L133.3,57.5z M75,87.9
		c-3.5,3.2-8.4,4.7-14.6,4.4c-11.3,0-21.6-4-30.9-12c-10.1-8.7-15.1-19.2-15.1-31.6c0-13,3.7-23.2,11-30.6c7.3-7.3,17.2-11,29.8-11
		c10.4,0,18.3,3.5,23.7,10.4c2.7,3.5,4.4,6.9,5.1,10.4l3.2-21c-4.4-1.3-15.4-2.7-33-4C32.3,3,17.4,10.6,9.4,25.8
		C5.4,33.4,3.6,41,4,48.6c0,16.8,5.3,29.5,15.9,38.1c9.3,7.5,21.7,11.3,37.3,11.3c8.7,0,16.1-1.1,22.3-3.3c3.1-1.1,5.3-2.2,6.7-3.3
		V58.6c-0.2-0.7,0-1.5,0.7-2.5c1.4-1.9,4.3-3.4,8.9-4.5H65.4c4.6,1.1,7.5,2.7,8.9,4.5c0.7,0.9,0.9,1.7,0.7,2.5V87.9z"/>
</g>
</svg>
