<svg id="Layer_1" data-name="Layer 1" xmlns="http://www.w3.org/2000/svg" viewBox="0 0 300 300">
  <defs>
    <style>
      .cls-1 {
        fill: #fff;
      }
    </style>
  </defs>
  <title>symbol_r_baratheon</title>
  <circle id="circle_path" class="cls-1" cx="149.5" cy="150.43" r="145.57"/>
  <path d="M129.83,243.76c9.62-16.27,5.08-29.67-5.14-42.23-9.77-12-9.61-22.43-11.87-37.24-1.44-9.39-6-14-14.53-17.7a77.09,77.09,0,0,1-15.11-8.39c-5.75-4.26-7.4-11.62-4.46-16.65,3.71-6.31,9.47-5.65,15.35-4,16.17,4.43,20.72.64,25.44-16,4.32-15.24,8-30.69,25.12-33.09a31.44,31.44,0,0,1,35.13,23.82,58.31,58.31,0,0,0,3.63,11.41c3.37,7.21,3.17,13,10.9,11.42,3.71-.74,7.33-.57,11-1.39,6.27-1.4,11.64,0,15,5.82,3.54,6.11,1.08,11.28-3.57,15.46A96.56,96.56,0,0,1,206,142.86c-11.56,7.82-11.35,14.49-13.27,28.43-3.34,24.33-13.73,45-33.39,60.39A55.88,55.88,0,0,1,129.83,243.76Z"/>
  <path class="cls-1" d="M132,134s0-16,3-13,6,11,10,6,7-17,11-10,4,14,7,13,6-9,7-4-5.93,36.93-22,28C139,149,132,142,132,134Z"/>
  <path class="cls-1" d="M149.37,100s-2.85-10-11.4-4.27S125.16,110,130.14,110,150.79,110,149.37,100Z"/>
  <path class="cls-1" d="M155.11,100s2.85-10,11.39-4.27S179.32,110,174.34,110,153.69,110,155.11,100Z"/>
</svg>
