<svg id="Layer_3" data-name="Layer 3" xmlns="http://www.w3.org/2000/svg" viewBox="0 0 300 300">
  <defs>
    <style>
      .cls-1 {
        fill: #fff;
      }
    </style>
  </defs>
  <title>symbol_poison</title>
  <circle id="circle_path" class="cls-1" cx="149.5" cy="150.43" r="145.57"/>
  <circle id="circle_path-2" data-name="circle_path" class="cls-1" cx="149.5" cy="150.43" r="145.57"/>
  <g>
    <path d="M193.52,187.69s-78.88,28.05-85.9,31.55-14,9.65-17.53,14.91-14,10.51-15.77,4.38.87-7-1.76-10.52-9-13.75-5.26-16.65c3.34-2.6,3.65-5.85,16.66-5.26,12.26.55,48.21-8.77,63.11-14.9s37.69-13.15,44.7-19.29,9.64-12.27,15.78-17.53,13.14-5.26,18.4-2.63,2.63,9.64-.87,12.27-5.26,7.89-.88,10.52,7.89,14-5.26,14S209.3,184.18,193.52,187.69Z"/>
    <path d="M101.57,187.69s78.89,28.05,85.9,31.55,14,9.65,17.53,14.91,14,10.51,15.78,4.38-.88-7,1.75-10.52,9-13.75,5.26-16.65c-3.33-2.6-3.65-5.85-16.66-5.26-12.26.55-48.21-8.77-63.11-14.9s-37.69-13.15-44.7-19.29-9.64-12.27-15.78-17.53-13.14-5.26-18.4-2.63S66.51,161.39,70,164s5.26,7.89.88,10.52-7.89,14,5.26,14S85.79,184.18,101.57,187.69Z"/>
    <path d="M147.94,168.41s-11.83.44-17.53-5.26c-6.58-6.59-4.38-14-15.77-20.16s-12.71-22.35-13.59-34.62,2.63-58.73,49.09-58.73,46.45,49.08,46.45,53.47,0,32.43-6.14,35.93-14,5.26-15.77,11.4S165,168.85,147.94,168.41Z"/>
    <path class="cls-1" d="M125.59,134.66c-5.83-2.08-22.93-5.7-15.77-21,0,0,5.25-7.88,23.66-5.25S137.86,139,125.59,134.66Z"/>
    <path class="cls-1" d="M173.06,134.66c5.84-2.08,22.94-5.7,15.78-21,0,0-5.26-7.88-23.66-5.25S160.79,139,173.06,134.66Z"/>
    <path class="cls-1" d="M143.56,135.1l-3.5,8.76s-.88,6.14,3.5,6.14h9.64s5.26-1.75,3.51-6.14-4.38-10.51-4.38-10.51S147.94,126.33,143.56,135.1Z"/>
  </g>
</svg>
