<svg id="Layer_3" data-name="Layer 3" xmlns="http://www.w3.org/2000/svg" viewBox="0 0 300 300">
  <defs>
    <style>
      .cls-1 {
        fill: #fff;
      }
    </style>
  </defs>
  <title>symbol_fire</title>
  <circle id="circle_path" class="cls-1" cx="149.5" cy="150.43" r="145.57"/>
  <circle id="circle_path-2" data-name="circle_path" class="cls-1" cx="149.5" cy="150.43" r="145.57"/>
  <g>
    <path d="M144,251s-66-.67-53-50c5-19,10-36-8-52,0,0,21-8,27,13,0,0-6-49,25-66,23.93-13.12,45-42,24-59,0,0,44,19,26,54-19.3,37.52-16,50-8,55s6-17,17-21a52.78,52.78,0,0,1,21-3s-26.54,2.55-12,53C220,234,181,251,144,251Z"/>
    <path class="cls-1" d="M171,202c-2.36-10.17-8,24-18,13s4-19,5-26c3.74-26.21-10-37-10-37,3,34-19,27-30,54-8.13,19.95,7,35,24,35C142,241,181,245,171,202Z"/>
  </g>
</svg>
