<svg id="Layer_3" data-name="Layer 3" xmlns="http://www.w3.org/2000/svg" viewBox="0 0 300 300">
  <defs>
    <style>
      .cls-1 {
        fill: #fff;
      }
    </style>
  </defs>
  <title>symbol_rings</title>
  <circle id="circle_path" class="cls-1" cx="149.5" cy="150.43" r="145.57"/>
  <circle id="circle_path-2" data-name="circle_path" class="cls-1" cx="149.5" cy="150.43" r="145.57"/>
  <g>
    <path d="M127.73,199.3a51,51,0,1,1,43.39-50.42,50.89,50.89,0,0,1-17.4,38.31,44.92,44.92,0,0,0,14,7.13,65.72,65.72,0,1,0-26.14,16.82A72.12,72.12,0,0,1,127.73,199.3Z"/>
    <path d="M180.81,85.25a65.5,65.5,0,0,0-21.47,3.61,72.18,72.18,0,0,1,13.89,11.84,51.11,51.11,0,1,1-26,12.1,45.13,45.13,0,0,0-14-7.13,65.83,65.83,0,1,0,47.61-20.42Z"/>
  </g>
</svg>
