<svg id="Layer_3" data-name="Layer 3" xmlns="http://www.w3.org/2000/svg" viewBox="0 0 300 300">
  <defs>
    <style>
      .cls-1 {
        fill: #fff;
      }
    </style>
  </defs>
  <title>symbol_dogs</title>
  <circle id="circle_path" class="cls-1" cx="147.5" cy="148.43" r="145.57"/>
  <g>
    <g>
      <path d="M148.53,87c-6.29.31-12.62.27-18.86,1-10.21,1.24-20.53,2.26-30.48,4.7-14.07,3.46-25.65,10.46-28.38,26.49a9.07,9.07,0,0,1-.49,1.56c-4.56,12.9-9,25.83-13.71,38.69-2.51,6.92-1.2,13,3.37,18.54,6.42,7.72,15.11,11.9,24.36,15.08,20.39,7,41.62,8.54,62.91,8.87a325.79,325.79,0,0,0,33.47-1.73,127.22,127.22,0,0,0,43.55-11.5,49.78,49.78,0,0,0,12.81-8.22c5.79-5.43,5.67-12.57,3.39-19.71-4.25-13.35-9.14-26.52-12.72-40-3.63-13.74-11.45-22.62-25.2-26.18C184.84,90,167,86.46,148.53,87Z"/>
      <path d="M148.53,87c18.46-.57,36.31,3,54,7.56,13.75,3.56,21.57,12.44,25.2,26.18,3.58,13.53,8.47,26.7,12.72,40.05,2.28,7.14,2.4,14.28-3.39,19.71a49.78,49.78,0,0,1-12.81,8.22,127.22,127.22,0,0,1-43.55,11.5A325.79,325.79,0,0,1,147.25,202c-21.29-.33-42.52-1.86-62.91-8.87C75.09,189.93,66.4,185.75,60,178c-4.57-5.49-5.88-11.62-3.37-18.54,4.66-12.86,9.15-25.79,13.71-38.69a9.07,9.07,0,0,0,.49-1.56c2.73-16,14.31-23,28.38-26.49,10-2.44,20.27-3.46,30.48-4.7C135.91,87.3,142.24,87.34,148.53,87Zm.15,5.2c-5.74.3-11.53.24-17.21,1-10,1.34-20,2.58-29.75,5-6,1.53-11.92,4.67-17.21,8.11-5,3.24-5,8.37-.18,11.92a56.3,56.3,0,0,0,14.31,7.44c12.67,4.51,26,5.91,39.34,6.53,18.38.85,36.71-.18,54.66-4.65,7.39-1.83,14.73-4,20.63-9.23,4.31-3.79,4.3-7.81.17-11.76-4.62-4.42-10.51-6.48-16.46-8.2C181.22,93.86,165.06,92.3,148.68,92.23Z"/>
      <path class="cls-1" d="M148.68,92.23c16.38.07,32.54,1.63,48.3,6.2,6,1.72,11.84,3.78,16.46,8.2,4.13,4,4.14,8-.17,11.76-5.9,5.19-13.24,7.4-20.63,9.23-17.95,4.47-36.28,5.5-54.66,4.65-13.31-.62-26.67-2-39.34-6.53a56.3,56.3,0,0,1-14.31-7.44c-4.82-3.55-4.79-8.68.18-11.92,5.29-3.44,11.16-6.58,17.21-8.11,9.72-2.46,19.77-3.7,29.75-5C137.15,92.47,142.94,92.53,148.68,92.23Z"/>
    </g>
    <path class="cls-1" d="M92,151.18c2.46-9,12.65-10.58,18.85-2.64,2,2.56,4,3.15,7,3.16q33.21.12,66.42.57c4,0,7.12-1,9.64-4.08s5.79-3.66,9.32-2.92c5.57,1.17,8.33,7.75,5.53,12.76-.38.66-.83,1.28-1.12,1.73l3.25,5.46v4.22c-2.62,7-8.06,7.66-13.35,6.9-1.43-.2-2.79-1.53-4-2.57-1-.85-1.6-2.11-2.5-3.07a12.12,12.12,0,0,0-9.24-4.15q-28.77,0-57.53-.39c-4.77-.06-8.66,1.29-11.88,4.82-3.58,3.92-8,4.51-12.83,2.77-6.76-2.43-8.32-7.55-4.3-13.1L92,154.46Z"/>
  </g>
</svg>
